Coordinates
version=1
nRows=17
nColumns=34
inDegrees=yes

Units are S.I. units (second, meters, Newtons, ...)
If the header above contains a line with 'inDegrees', this indicates whether rotational values are in degrees (yes) or radians (no).

endheader
time	pelvis_tilt	pelvis_list	pelvis_rotation	pelvis_tx	pelvis_ty	pelvis_tz	hip_flexion_r	hip_adduction_r	hip_rotation_r	knee_angle_r	ankle_angle_r	subtalar_angle_r	mtp_angle_r	hip_flexion_l	hip_adduction_l	hip_rotation_l	knee_angle_l	ankle_angle_l	subtalar_angle_l	mtp_angle_l	lumbar_extension	lumbar_bending	lumbar_rotation	arm_flex_r	arm_add_r	arm_rot_r	elbow_flex_r	pro_sup_r	arm_flex_l	arm_add_l	arm_rot_l	elbow_flex_l	pro_sup_l
      2.98333330	     -0.98069293	      1.48961612	    -44.44851145	      0.59485920	      0.99162219	      0.24643336	     -5.94333565	     -5.86889124	     -6.95656028	      0.00126413	     11.37197791	      2.47871387	      0.00000000	     -5.19778054	     -2.26350192	     -3.90182815	      0.61523047	     12.08415759	      7.08959825	      0.00000000	     -7.68329483	     -1.85097653	     -1.11037362	      5.82461545	    -12.83344729	     27.68828093	     15.80118460	    115.05261253	      5.51837446	     -9.92683882	     33.44586440	     12.34651969	    108.97174574
      3.00000000	     -0.88438925	      1.43529349	    -44.32615142	      0.59615447	      0.99164225	      0.24681790	     -6.09656815	     -5.93471570	     -6.96010388	      0.14667777	     11.32909372	      2.46518690	      0.00000000	     -5.28242763	     -2.22164221	     -3.88640179	      0.79435329	     12.02169635	      7.08618344	      0.00000000	     -7.65775354	     -1.72387177	     -0.99033538	      5.36581466	    -12.81351450	     27.62320973	     15.51456760	    115.03902123	      5.07244564	     -9.74931932	     33.42044588	     12.31660538	    108.96243273
      3.01666670	     -0.84351413	      1.41289501	    -44.23566541	      0.59694849	      0.99147014	      0.24723239	     -6.29268386	     -5.92394515	     -7.11283025	      0.00000000	     11.33629108	      2.37685580	      0.00000000	     -5.40978348	     -2.20423114	     -3.85619829	      0.72294132	     12.07055494	      7.07640889	      0.00000000	     -7.57162557	     -1.63477121	     -0.74657044	      4.98976824	    -12.68523256	     27.34340214	     14.90118852	    114.97387697	      4.73679094	     -9.68206626	     33.24480717	     12.32140697	    108.90551176
      3.03333330	     -0.73396710	      1.29505221	    -44.13026621	      0.59714793	      0.99164696	      0.24718215	     -6.49632231	     -5.90761270	     -7.13272577	      0.00000000	     11.27956521	      2.56888090	      0.00000000	     -5.63370333	     -2.22296337	     -3.69033423	      0.56661899	     11.83024838	      7.00346775	      0.00000000	     -7.78878380	     -1.50427912	     -0.88057011	      5.17428928	    -12.02413089	     25.53997329	     13.64164004	    114.54325899	      4.30010595	     -9.50302961	     31.96254995	     12.44023561	    108.49833817
      3.05000000	     -0.72234911	      1.32024813	    -44.08709214	      0.59703146	      0.99150022	      0.24670121	     -6.46314844	     -5.93976196	     -7.14426495	      0.00164426	     11.27953264	      2.55975321	      0.00000000	     -5.58534826	     -2.19580499	     -3.67928157	      0.55559087	     11.83180306	      7.00735524	      0.00000000	     -7.92614246	     -1.41817887	     -0.80773984	      5.06183930	    -11.94453357	     25.54574542	     13.62151020	    114.54533290	      4.13932924	     -9.48390352	     31.96219774	     12.40196911	    108.49775354
      3.06666670	     -0.66805937	      1.29093200	    -44.01940787	      0.59834632	      0.99130514	      0.24747895	     -6.64157122	     -5.95431201	     -7.28438430	      0.00000000	     11.24984620	      2.47448009	      0.00000000	     -5.67601006	     -2.18956041	     -3.60348757	      0.67766083	     11.85905961	      7.00979511	      0.00000000	     -7.76736125	     -1.35403021	     -0.56533120	      4.43361165	    -11.79826432	     25.45793751	     13.30941612	    114.52661656	      3.69729847	     -9.26579546	     31.86865957	     12.33247802	    108.46476573
      3.08333330	     -0.66444547	      1.31695679	    -43.97014925	      0.59819892	      0.99119474	      0.24701582	     -6.60050500	     -5.97370222	     -7.28643911	      0.00190756	     11.24832366	      2.47389376	      0.00000000	     -5.63167950	     -2.16208568	     -3.59766295	      0.65789178	     11.86124882	      7.01127917	      0.00000000	     -7.90476432	     -1.27828173	     -0.50642074	      4.33189290	    -11.71235561	     25.45918138	     13.27909316	    114.52681011	      3.55140011	     -9.24171140	     31.86582386	     12.29266236	    108.46298665
      3.10000000	     -0.78143807	      1.31232360	    -43.99703163	      0.59928176	      0.99084239	      0.24806700	     -6.59110455	     -5.86866847	     -7.52494113	      0.00000000	     11.22780376	      2.54160711	      0.00000000	     -5.75207191	     -2.25762281	     -3.34214130	      0.48670856	     11.93395908	      7.01543769	      0.00000000	     -7.55209025	     -1.11038815	     -0.21909170	      3.91768594	    -11.21559741	     24.55589254	     12.14083708	    114.25139620	      3.17144026	     -8.84412431	     31.06106485	     11.81353606	    108.16651792
      3.11666670	     -0.74384254	      1.29739496	    -43.90524415	      0.59957380	      0.99081479	      0.24789730	     -6.63321846	     -5.89767682	     -7.49145758	      0.00177262	     11.21479379	      2.57024348	      0.00000000	     -5.74383478	     -2.24359584	     -3.37487277	      0.56973206	     11.90218556	      6.97038200	      0.00000000	     -7.62976589	     -1.04957792	     -0.19602648	      3.67330686	    -11.04274225	     24.51996041	     12.08004350	    114.23824652	      2.91474217	     -8.71529940	     31.02425164	     11.76175128	    108.15021294
      3.13333330	     -0.70167026	      1.28466223	    -43.86408076	      0.60039352	      0.99068139	      0.24837275	     -6.76613798	     -5.90580879	     -7.50390734	      0.00000000	     11.21706304	      2.57136696	      0.00000000	     -5.77181103	     -2.21196965	     -3.39476584	      0.68392756	     11.88544367	      6.91618546	      0.00000000	     -7.60532524	     -0.94662877	     -0.12818790	      3.37152159	    -10.85824843	     24.43111009	     11.92811025	    114.20473622	      2.57099219	     -8.60898836	     30.93600347	     11.62119121	    108.11252655
      3.15000000	     -0.66724681	      1.26516068	    -43.85722853	      0.60113465	      0.99056662	      0.24857301	     -6.85751810	     -5.94054477	     -8.05494268	      0.00000000	     11.51303453	      3.34609735	      0.00000000	     -5.94939486	     -2.16734754	     -2.88954989	      0.49141566	     11.72401853	      6.14649589	      0.00000000	     -7.63737498	     -0.83458347	     -0.00919329	      2.90774611	    -10.24798968	     19.33788294	     11.87347173	    112.27763525	      2.10686023	     -8.05606052	     26.05908352	     11.64820346	    106.10609153
      3.16666670	     -0.66434386	      1.28732561	    -43.83233946	      0.60122044	      0.99046806	      0.24817492	     -6.83144692	     -5.96960937	     -8.05594039	      0.00000000	     11.51414168	      3.34312076	      0.00000000	     -5.91530476	     -2.14244237	     -2.88807254	      0.47975741	     11.72222237	      6.14687812	      0.00000000	     -7.74468819	     -0.73617747	      0.03106786	      2.82929210	    -10.13819342	     19.34566759	     11.86026597	    112.28072986	      1.97801220	     -8.04678774	     26.05926258	     11.59884824	    106.10636089
      3.18333330	     -0.64085834	      1.23880413	    -43.84711557	      0.60220098	      0.99029660	      0.24912990	     -6.98292505	     -5.94645937	     -8.07062808	      0.00000000	     11.52016849	      3.31719569	      0.00000000	     -6.03928641	     -2.18264218	     -2.89986374	      0.55943022	     11.73270413	      6.11581871	      0.00000000	     -7.59273044	     -0.63034264	      0.07489305	      2.50020719	     -9.87340987	     19.30136219	     11.64825349	    112.27063819	      1.57201714	     -7.91338692	     26.01195823	     11.32759636	    106.09032234
      3.20000000	     -0.62879887	      1.13506727	    -44.01941089	      0.60236052	      0.99032347	      0.24919617	     -7.03651153	     -5.89464112	     -8.12893169	      0.00000000	     11.59025999	      3.48510563	      0.00000000	     -6.26557569	     -2.20494294	     -2.96475771	      0.34183130	     11.69920806	      5.85791721	      0.00000000	     -7.62880887	     -0.48549136	      0.28857302	      2.55509586	     -9.47210346	     17.98405395	     10.82246937	    111.83257637	      1.62030836	     -7.47480348	     24.83940067	     10.34289516	    105.64195598
      3.21666670	     -0.61723131	      1.13616443	    -44.00396508	      0.60247358	      0.99022836	      0.24917535	     -7.05511596	     -5.90710525	     -8.10398559	      0.00000000	     11.60721242	      3.49377187	      0.00000000	     -6.28242039	     -2.19487654	     -2.93064831	      0.33607389	     11.71293934	      5.87664138	      0.00000000	     -7.64693416	     -0.41143803	      0.29989456	      2.39835005	     -9.31659482	     17.96707115	     10.78189317	    111.82512445	      1.46937598	     -7.39022097	     24.82101322	     10.29707144	    105.63307421
      3.23333330	     -0.60772788	      1.14854282	    -43.98778056	      0.60257193	      0.99019148	      0.24895850	     -7.05390363	     -5.94256029	     -8.10202785	      0.00000000	     11.61683194	      3.49139870	      0.00000000	     -6.27985995	     -2.15832293	     -2.92197188	      0.32801811	     11.71937070	      5.88153478	      0.00000000	     -7.67999416	     -0.30282182	      0.32846762	      2.34415229	     -9.23092339	     17.96362774	     10.76765077	    111.82279119	      1.39458291	     -7.40676889	     24.81040898	     10.25591523	    105.62839520
      3.25000000	     -0.61015077	      1.09731139	    -43.97340991	      0.60378862	      0.98995115	      0.25011001	     -7.21891089	     -5.89337452	     -8.09222774	      0.00000000	     11.86123450	      3.46753504	      0.00000000	     -6.61204590	     -2.20055544	     -2.79529600	      0.00000000	     11.91396995	      5.95414692	      0.00000000	     -7.39182396	     -0.22307963	      0.38131766	      1.96836645	     -8.96503983	     17.58987976	     10.25480954	    111.65760799	      1.09705669	     -7.21823711	     24.48337073	      9.75352988	    105.47586983
